inDegrees=no
num_controls=7
num_derivatives=13
num_iterations=84
num_multipliers=7
num_parameters=0
num_slacks=7
num_states=26
objective=4.274592
objective_accelerations=0.585924
objective_balance=0.037265
objective_effort=0.652828
objective_height=2.904029
objective_ligament=0.094546
solver_duration=888.903652
status=Solve_Succeeded
success=true
DataType=double
version=3
OpenSimVersion=4.4-2022-07-23-0e9fedc
endheader
time	/jointset/ground_pelvis/pelvis_tilt/value	/jointset/ground_pelvis/pelvis_tx/value	/jointset/ground_pelvis/pelvis_ty/value	/jointset/hip_l/hip_flexion_l/value	/jointset/hip_l/hip_adduction_l/value	/jointset/hip_l/hip_rotation_l/value	/jointset/back/lumbar_extension/value	/jointset/patellofemoral_l/patellar_flexion_l/value	/jointset/knee_l/knee_flexion_l/value	/jointset/knee_l/knee_adduction_l/value	/jointset/knee_l/knee_rotation_l/value	/jointset/ankle_l/ankle_angle_l/value	/jointset/subtalar_l/subtalar_angle_l/value	/jointset/ground_pelvis/pelvis_tilt/speed	/jointset/ground_pelvis/pelvis_tx/speed	/jointset/ground_pelvis/pelvis_ty/speed	/jointset/hip_l/hip_flexion_l/speed	/jointset/hip_l/hip_adduction_l/speed	/jointset/hip_l/hip_rotation_l/speed	/jointset/back/lumbar_extension/speed	/jointset/patellofemoral_l/patellar_flexion_l/speed	/jointset/knee_l/knee_flexion_l/speed	/jointset/knee_l/knee_adduction_l/speed	/jointset/knee_l/knee_rotation_l/speed	/jointset/ankle_l/ankle_angle_l/speed	/jointset/subtalar_l/subtalar_angle_l/speed	/forceset/tau_hip_flexion_l	/forceset/tau_hip_adduction_l	/forceset/tau_hip_rotation_l	/forceset/tau_knee_flexion_l	/forceset/tau_ankle_angle_l	/forceset/tau_subtalar_angle_l	/forceset/tau_lumbar_extension	lambda_cid13_p0	lambda_cid13_p1	lambda_cid13_p2	lambda_cid13_p3	lambda_cid13_p4	lambda_cid13_p5	lambda_cid14_p0	/jointset/ground_pelvis/pelvis_tilt/accel	/jointset/ground_pelvis/pelvis_tx/accel	/jointset/ground_pelvis/pelvis_ty/accel	/jointset/hip_l/hip_flexion_l/accel	/jointset/hip_l/hip_adduction_l/accel	/jointset/hip_l/hip_rotation_l/accel	/jointset/back/lumbar_extension/accel	/jointset/patellofemoral_l/patellar_flexion_l/accel	/jointset/knee_l/knee_flexion_l/accel	/jointset/knee_l/knee_adduction_l/accel	/jointset/knee_l/knee_rotation_l/accel	/jointset/ankle_l/ankle_angle_l/accel	/jointset/subtalar_l/subtalar_angle_l/accel	gamma_cid13_p0	gamma_cid13_p1	gamma_cid13_p2	gamma_cid13_p3	gamma_cid13_p4	gamma_cid13_p5	gamma_cid14_p0
1	-0.1259493517687732	-0.06064737817560298	0.4754959864742037	1.92506676933734	-0.2892931287273713	0.2152427826858195	-0.9598800944891531	1.977469674897597	1.977469674897482	0.04800910848830151	-0.1745276142308517	0.3188685342231971	0.1352948062627683	0.05709321835643573	0.01015554471941877	0.08053555765765372	-0.3006971545622258	-0.02996507575962205	-0.0672761278051445	-0.0047006635241471	-0.1563402073458573	-0.1563402073458704	-0.01413762952267208	-2.514674489068499e-05	0.07998758212841883	0.00220359070209631	-0.4185706102823876	-0.01812026631328751	-0.001122720382145389	-0.4782242790363171	0.06473727598204113	-0.01276782693889521	0.4657269944338055	-38.78773498546875	19.39203653286147	-11.60502689547178	23.30612530090566	-867.6373942036078	-66.40104195578326	-0.02941214319196734	-0.1948851159729525	-0.4082008173082317	2.722489065708882	-7.74381692539404	-0.8119937918218274	-2.487436014747661	0.2773252466267458	-7.225026927555054	-7.225026927555131	-1.04236296492472	-0.0314220105656569	0.2005038516861843	-1.0016490381539	5.542865876775472e-09	2.770301210345074e-08	-1.187577573841071e-07	-5.931683334709917e-08	-3.869914728126729e-08	8.932248812685007e-08	-4.623538643564147e-09
1.01	-0.1253874944277022	-0.06056619796032784	0.4764373759609786	1.921672573315668	-0.2896320834342612	0.2144470927691519	-0.9599145043252573	1.975545274568614	1.975545274568468	0.0478152386593164	-0.1745278468151771	0.3196779788237576	0.135268281098505	0.05536385490293427	0.006087954589708639	0.107732521249492	-0.3781314324381345	-0.03778691627931287	-0.09184032922745186	-0.002320362811685464	-0.2285275284969788	-0.228527528496982	-0.02462476978702949	-1.761490585859253e-05	0.08181484178637088	-0.00750548855056876	-0.4170020918577055	-0.01769559608801682	-0.001062708589510881	-0.4789833341488465	0.06510017664347653	-0.01251438630245517	0.4643892003443343	-38.58755160014218	19.25657872068148	-11.59446818081545	23.17385083217589	-866.6488681943611	-66.52732659785111	-0.0295342534799985	-0.1491286319323984	-0.4049349742715032	2.716816635211611	-7.741647604351718	-0.7614082672974234	-2.437692674568739	0.1975236115921647	-7.213733975659835	-7.213733975658214	-1.050156133474847	0.01737584871924968	0.1608610790949496	-0.9550497571903136	3.344997009970207e-09	4.611937730655853e-09	-1.495955337793253e-07	-7.633269979268524e-08	-5.287356810247515e-08	6.69802118689615e-08	-6.186147553542106e-09
1.02	-0.1248403640555325	-0.06052547301904283	0.4776504384095328	1.917504351638045	-0.290048082363438	0.2134064047444476	-0.9599292829279994	1.972899371174765	1.972899371174705	0.0475168441121094	-0.1745278970676211	0.3205031008321444	0.1351447626640463	0.05414782457361536	0.002064489921391914	0.1348701500128832	-0.4555022857405364	-0.04537392020920916	-0.1162757493936266	-0.0007744169778094207	-0.3006408203188864	-0.3006408203188793	-0.0350425731026939	1.131963642576097e-05	0.08312306369410895	-0.0171950633379661	-0.415433573433295	-0.01727092586278738	-0.001002696797541231	-0.4797423892613978	0.06546307730498369	-0.01226094566602592	0.4630514062546175	-38.38268338730485	19.12259888202997	-11.58676924317151	23.05664618477845	-865.6199542860329	-66.56903081956905	-0.02969259156763252	-0.09221849113591739	-0.399375725029787	2.710622100019425	-7.73113201069268	-0.765026473862767	-2.461679763521154	0.1104542709113686	-7.21022106171237	-7.210221061712387	-1.028495575186083	-0.02714146991509857	0.09669630164282551	-0.9977481451004798	-2.050951648019473e-09	-1.26998633647005e-08	-1.77211627155988e-07	-8.440196259827587e-08	-6.565905354062934e-08	7.641148298459186e-08	-1.015243386871122e-08
1.03	-0.1243031596952498	-0.06052445073299052	0.4791345252237398	1.912563160105988	-0.290538726374331	0.2121220293198801	-0.9599308283746638	1.969532919741023	1.969532919740952	0.04711478656146867	-0.1745275972283514	0.3213388781439536	0.1349246131483746	0.05334620216337259	-0.001821551880677686	0.1619323428465309	-0.5326872411721573	-0.05271097412565024	-0.1405655580688337	0.0005194376491973139	-0.372616410377168	-0.3726164103771681	-0.04535096358216318	4.54623149006422e-05	0.08396468929942277	-0.02681433247581711	-0.4154040423059909	-0.0169859487451658	-0.0009122286821393357	-0.4801292927412129	0.06569901244791583	-0.01188945671159145	0.4635321100266837	-38.24489384147422	18.93072885239249	-11.54886272631827	22.39680216769236	-865.6158746692101	-66.61083477282968	-0.02987799031588408	-0.06617118995682345	-0.3774648082671092	2.701771614078658	-7.704870392770944	-0.7114209335901308	-2.407584211777926	0.1469676076227012	-7.186266717441232	-7.186266717442272	-1.029323523225053	0.01817456530902798	0.06773365749210757	-0.940910347159387	-7.479533773266156e-09	-2.995269228375642e-08	-2.047948462161348e-07	-9.237993352998894e-08	-7.843036616875236e-08	8.616697397138077e-08	-1.414324750434149e-08
1.04	-0.1237723789738397	-0.06056113814505258	0.4808887847140944	1.906851580402917	-0.2911014161410257	0.2105957652500148	-0.9599178119686729	1.965447704658787	1.965447704658774	0.04661018255794563	-0.1745270594766121	0.3221810393053198	0.134608892131522	0.05286309679350755	-0.005477449701486009	0.1889046852418221	-0.6095799199387424	-0.05978307136432093	-0.1646534784343482	0.002137954237215132	-0.4443935500176651	-0.4443935500176718	-0.05555186361750297	5.890213656829769e-05	0.08439983360537599	-0.03630936357497919	-0.4153745111788374	-0.01670097162758752	-0.0008217605673577083	-0.4805161962210454	0.0659349475908871	-0.01151796775718867	0.4640128137986141	-38.10301871289094	18.7399327510216	-11.51317023133972	21.75524517768801	-865.576705659361	-66.57264972879585	-0.03009691839996995	-0.02851508305982857	-0.3533469287777691	2.692652012348081	-7.672676677685513	-0.7120351383086291	-2.421302101582759	0.1753866631125923	-7.170530978155539	-7.170530978155476	-1.006997486360149	-0.03128204127662491	0.01540004177012189	-0.9729005373629834	-1.073580932492092e-08	-4.574291073177396e-08	-2.190833049859869e-07	-1.029808577082582e-07	-8.93035533957059e-08	1.0776379802414e-07	-1.957849332569773e-08
1.05	-0.1232451452090215	-0.06063306953018665	0.4829122177883087	1.900373170039135	-0.2917333765057287	0.2088296004646566	-0.9598858973869469	1.960645818243506	1.960645818243498	0.04600432104228191	-0.1745264417753599	0.3230253213029446	0.134198921273213	0.0526048990149123	-0.008854149582724524	0.2157573042884528	-0.6859926061652954	-0.06655171239944549	-0.1885334434001304	0.004408760231560623	-0.5159406786516554	-0.5159406786516483	-0.06559635683208684	6.44240182089356e-05	0.08437120498025259	-0.04565432248871699	-0.4158778364107056	-0.01640415837131814	-0.0006984885018632312	-0.480770020333353	0.06625257458114792	-0.0110475319182685	0.4652043943574293	-37.93228506760151	18.48910510201431	-11.45419429921618	20.81232670766529	-865.8658523888482	-66.56858819437502	-0.03035215525511156	-0.02129855941615869	-0.3216526977940293	2.677852921008998	-7.609145188445042	-0.6506429731653801	-2.364467736670728	0.2774972791743999	-7.140340581125732	-7.140340581123632	-0.9995805829575954	0.01639223366742968	-0.02480695739626763	-0.9106823228592549	-1.392420029615095e-08	-6.148742260257156e-08	-2.329563024967673e-07	-1.136637491754823e-07	-1.001174242038729e-07	1.297306637352108e-07	-2.50588776528579e-08
1.06	-0.1227198587087971	-0.06073713215013168	0.4852034342670303	1.893133916694422	-0.2924312961582139	0.2068260112210437	-0.9598263608026392	1.955129753186865	1.955129753186908	0.04529873352540178	-0.174525784269104	0.3238667544857681	0.1336964230748742	0.05247364386996732	-0.01190369666367808	0.2424613661426535	-0.7617485161240262	-0.07297492891662551	-0.2121383700697132	0.007662354689003578	-0.5872292782898527	-0.5872292782898317	-0.07549706380463853	6.686313115673405e-05	0.08383007064540016	-0.05481483158168651	-0.416381161642657	-0.01610734511506508	-0.0005752164369455652	-0.4810238444456822	0.06657020157142933	-0.01057709607935152	0.466395974916167	-37.75841046002092	18.23891971196536	-11.39668160054576	19.89075236360934	-866.1293029047971	-66.49071119384479	-0.03063729008483626	-0.003126556329215352	-0.2879163687210358	2.662940573862016	-7.54132142412104	-0.6429502347196897	-2.366294442343046	0.3719443557313709	-7.118825178997054	-7.118825178996957	-0.9782402379536447	-0.03189859501534166	-0.08710110017633031	-0.9360105732097024	-1.618085549338761e-08	-7.341614131980969e-08	-2.320827542850607e-07	-1.219143108948163e-07	-1.079625972402907e-07	1.669859780043332e-07	-3.181279017453068e-08
1.07	-0.1221949640953462	-0.06086998456859762	0.487760867657818	1.885140531350947	-0.2931916410889449	0.2045876658973705	-0.9597296355661775	1.94890222310999	1.948902223109988	0.04449509225024376	-0.174525137906063	0.3246999358188303	0.1331032181333739	0.05255276613006083	-0.01460560566867917	0.2689929868456664	-0.8368077257220206	-0.07902470046086676	-0.2354735404595883	0.01182199588030972	-0.6582220224394464	-0.6582220224394376	-0.08520078997442754	6.392850260144923e-05	0.08269612666371423	-0.06379082651253357	-0.4165763278347756	-0.01572957669723661	-0.0004222545374181712	-0.4812316472628851	0.0671084582618445	-0.009993514696044765	0.4673016570864943	-37.47705917654206	17.90875874595657	-11.312692001344	18.83697844209227	-866.0485069206197	-66.49136800066648	-0.03095759315939761	0.02053989234867829	-0.2521770850075293	2.643400804241436	-7.470111228199532	-0.5755452127466764	-2.308594259554988	0.45886949176905	-7.081284013038186	-7.08128401303995	-0.9619071410834488	0.01569402273903332	-0.1430617867450543	-0.8730525841275043	-1.838795027711398e-08	-8.514189231611378e-08	-2.304248153434344e-07	-1.300354933722413e-07	-1.156498608207644e-07	2.050545076222884e-07	-3.863444355761371e-08
1.08	-0.1216678566042455	-0.06102802586083606	0.4905826428527829	1.876400175811382	-0.2940103946548289	0.2021176756852887	-0.9595871348195585	1.941966408595599	1.941966408595588	0.04359532004624404	-0.1745244839053612	0.3255184735641562	0.1324213215163471	0.05291621939688219	-0.01694147141817539	0.2953297269775235	-0.91114255534243	-0.08465665594393326	-0.2584673477392845	0.01681745670912174	-0.7288861657929575	-0.7288861657929625	-0.09472324952786232	6.839065462292049e-05	0.0809013530987923	-0.07255316668761654	-0.4167714940269344	-0.01535180827940659	-0.0002692926383584804	-0.4814394500801071	0.06764671495226936	-0.009409933312722885	0.4682073392567822	-37.19403011380345	17.57868570598989	-11.22915150430541	17.80871440087459	-865.9573910495019	-66.4271234550305	-0.03130329929144218	0.05373964501690153	-0.2147077176203444	2.623964459630787	-7.396445428604069	-0.5593870224846769	-2.298021820307496	0.5391082832326672	-7.053105019780631	-7.053105019780868	-0.9419869146826663	-0.03041923890007897	-0.2192670168242236	-0.8932796220572458	-2.122908653905854e-08	-8.946097058547832e-08	-2.11543531445247e-07	-1.323538841467502e-07	-1.203684035843587e-07	2.762122796973211e-07	-4.827830990124261e-08
